<svg xmlns="http://www.w3.org/2000/svg" width="25" height="22" viewBox="0 0 25 22">
  <path fill="#2D2D2D" fill-rule="evenodd" d="M10.0006324 18C11.1048804 18 12 18.894931 12 19.9997892 12 21.1038044 11.1048804 22 10.0006324 22 8.89638453 22 8 21.1038044 8 19.9997892 8 18.894931 8.89638453 18 10.0006324 18M19 18C20.1041315 18 21 18.894931 21 19.9997892 21 21.1038044 20.1041315 22 19 22 17.8950253 22 17 21.1038044 17 19.9997892 17 18.894931 17.8950253 18 19 18M23.7018998 6.48207807L10.8760657 6.48207807C10.8760657 6.48207807 10.117843 6.6512914 10.117843 7.4698017 10.117843 8.29046484 10.8760657 8.5285691 10.8760657 8.5285691L22.3755576 8.5285691 21.7294695 10.6775354 10.4266512 10.6775354C10.4266512 10.6775354 9.72055358 10.8346928 9.72055358 11.5963681 9.72055358 12.3614879 10.4266512 12.5840917 10.4266512 12.5840917L21.1328783 12.5840917 21.1569698 12.5840917 20.550742 14.594415 8.88085808 14.594415 8.10642842 8.52770797 7.85456358 6.48207807C7.85456358 6.48207807 7.6294183 4.59188332 7.50195279 3.81255474 7.3749253 3.02762876 5.38103176 2.04679422 1.09451106.0610133181.0866136475-.35491564-.75658606 1.45777682 1.09451106 2.40631874L4.47431831 3.95851738C4.47431831 3.95851738 5.26057466 4.4076001 5.32846866 5.00910399 5.39592464 5.61405242 6.76738349 15.6084033 6.76738349 15.6084033 6.76738349 15.6084033 6.82213671 17 8.10818053 17L21.0054128 17C22.0851465 17 22.2949609 15.8912867 22.2949609 15.8912867L24.8512796 8.42910783C24.8512796 8.42910783 25.6095023 6.48207807 23.7018998 6.48207807"/>
</svg>
