<svg xmlns="http://www.w3.org/2000/svg" width="29" height="21" viewBox="0 0 29 21">
  <path fill-rule="evenodd" d="M26.9283273,16.7999134 L12.4287545,16.7999134 C11.2846136,16.7999134 10.3570818,17.7402442 10.3570818,18.9001733 C10.3570818,20.0596692 11.2846136,21 12.4287545,21 L26.9283273,21 C28.0728955,21 29,20.0596692 29,18.9001733 C29,17.7402442 28.0728955,16.7999134 26.9283273,16.7999134 M26.9283273,8.39974012 L12.4287545,8.39974012 C11.2846136,8.39974012 10.3570818,9.34007095 10.3570818,10.5 C10.3570818,11.659929 11.2846136,12.6002599 12.4287545,12.6002599 L26.9283273,12.6002599 C28.0728955,12.6002599 29,11.659929 29,10.5 C29,9.34007095 28.0728955,8.39974012 26.9283273,8.39974012 M12.4287545,4.20008663 L26.9283273,4.20008663 C28.0728955,4.20008663 29,3.2597558 29,2.10025988 C29,0.940330831 28.0728955,0 26.9283273,0 L12.4287545,0 C11.2846136,0 10.3570818,0.940330831 10.3570818,2.10025988 C10.3570818,3.2597558 11.2846136,4.20008663 12.4287545,4.20008663 M4.14291818,0 L2.07124547,0 C0.927531748,0 0,0.940330831 0,2.10025988 C0,3.2597558 0.927531748,4.20008663 2.07124547,4.20008663 L4.14291818,4.20008663 C5.28705914,4.20008663 6.21459088,3.2597558 6.21459088,2.10025988 C6.21459088,0.940330831 5.28705914,0 4.14291818,0 M4.14291818,8.39974012 L2.07124547,8.39974012 C0.927531748,8.39974012 0,9.34007095 0,10.5 C0,11.659929 0.927531748,12.6002599 2.07124547,12.6002599 L4.14291818,12.6002599 C5.28705914,12.6002599 6.21459088,11.659929 6.21459088,10.5 C6.21459088,9.34007095 5.28705914,8.39974012 4.14291818,8.39974012 M4.14291818,16.7999134 L2.07124547,16.7999134 C0.927531748,16.7999134 0,17.7402442 0,18.9001733 C0,20.0596692 0.927531748,21 2.07124547,21 L4.14291818,21 C5.28705914,21 6.21459088,20.0596692 6.21459088,18.9001733 C6.21459088,17.7402442 5.28705914,16.7999134 4.14291818,16.7999134"/>
</svg>
