<svg xmlns="http://www.w3.org/2000/svg" width="17" height="22" viewBox="0 0 17 22">
  <path fill-rule="evenodd" d="M11.1898513,9.05497387 C12.5702473,8.1796583 13.4870188,6.65592892 13.4870188,4.91778382 C13.4870188,2.20142083 11.2540253,0 8.50021828,0 C5.74597468,0 3.51385429,2.20142083 3.51385429,4.91778382 C3.51385429,6.65592892 4.43018926,8.1796583 5.81058524,9.05497387 C2.55866567,9.34172261 0,12.0434468 0,15.3251267 L0,20.4293403 L0.0130967361,20.5098538 L0.369764516,20.6192144 C3.72907732,21.654696 6.6483398,22 9.05115431,22 C13.7432783,22 16.4630338,20.6799225 16.6315452,20.5968256 L16.9646388,20.4293403 L17,20.4293403 L17,15.3251267 C17,12.0443079 14.4422074,9.34258371 11.1898513,9.05497387"/>
</svg>
