<svg xmlns="http://www.w3.org/2000/svg" width="21" height="21" viewBox="0 0 21 21">
  <path fill-rule="evenodd" d="M17.0624449,10.4997797 C17.0624449,11.2252848 16.4752695,11.8124725 15.7502202,11.8124725 L10.5,11.8124725 C9.77495071,11.8124725 9.18777531,11.2252848 9.18777531,10.4997797 L9.18777531,5.24988987 C9.18777531,4.52482537 9.77495071,3.93763766 10.5,3.93763766 C11.2250493,3.93763766 11.8126652,4.52482537 11.8126652,5.24988987 L11.8126652,9.18752753 L15.7502202,9.18752753 C16.4752695,9.18752753 17.0624449,9.77471525 17.0624449,10.4997797 M10.5,18.3750551 C6.15763309,18.3750551 2.62533037,14.8426782 2.62533037,10.4997797 C2.62533037,6.15776226 6.15763309,2.62494494 10.5,2.62494494 C14.8423669,2.62494494 18.3746696,6.15776226 18.3746696,10.4997797 C18.3746696,14.8426782 14.8423669,18.3750551 10.5,18.3750551 M10.5,0 C4.70092713,0 0,4.70146624 0,10.4997797 C0,16.2985338 4.70092713,21 10.5,21 C16.2986324,21 21,16.2985338 21,10.4997797 C21,4.70146624 16.2986324,0 10.5,0"/>
</svg>
