<svg xmlns="http://www.w3.org/2000/svg" width="21" height="20" viewBox="0 0 21 20">
  <path fill="#FFF" d="M20.4360106,16.7125933 L15.7228597,12 C15.0207414,13.0914257 14.092233,14.0204394 13,14.7230474 L17.7127096,19.4356407 C18.4651368,20.1881198 19.6849073,20.1881198 20.4360106,19.4356407 C21.1879965,18.684927 21.1879965,17.4650723 20.4360106,16.7125933 M7.5,13.1252149 C4.397989,13.1252149 1.87478515,10.6015813 1.87478515,7.5004297 C1.87478515,4.3984187 4.397989,1.87478515 7.5,1.87478515 C10.602011,1.87478515 13.1252149,4.3984187 13.1252149,7.5004297 C13.1252149,10.6015813 10.602011,13.1252149 7.5,13.1252149 M15,7.5004297 C15,3.35811275 11.6418872,0 7.5,0 C3.35811275,0 0,3.35811275 0,7.5004297 C0,11.6423169 3.35811275,15 7.5,15 C11.6418872,15 15,11.6423169 15,7.5004297"/>
</svg>
