<svg xmlns="http://www.w3.org/2000/svg" xmlns:xlink="http://www.w3.org/1999/xlink" width="478" height="426" viewBox="0 0 478 426">
  <defs>
    <polygon id="imgcourse-a" points="0 425.233 477.648 425.233 477.648 0 0 0"/>
  </defs>
  <g fill="none" fill-rule="evenodd">
    <path fill="#3E376B" d="M441.9209,398.0328 C441.9209,405.3248 350.7259,411.2348 238.2299,411.2348 C125.7339,411.2348 34.5389,405.3248 34.5389,398.0328 C34.5389,390.7418 125.7339,384.8308 238.2299,384.8308 C350.7259,384.8308 441.9209,390.7418 441.9209,398.0328"/>
    <path fill="#CFD6DE" d="M274.959,396.0347 L187.589,396.0347 C190.32,379.1447 193.842,362.2477 195.288,345.3507 C195.511,342.8287 195.679,340.3057 195.791,337.7827 C196.054,331.9647 196.022,326.1467 195.575,320.3297 L266.973,320.3297 C266.637,326.1287 266.701,331.9457 267.036,337.7827 C267.18,340.2997 267.38,342.8217 267.619,345.3507 C269.193,362.0837 272.587,378.9797 274.959,396.0347"/>
    <path fill="#EAEEEF" d="M297.5932,398.9761 L164.9562,398.9761 C164.9562,394.3701 168.6902,390.6351 173.2972,390.6351 L289.2532,390.6351 C293.8592,390.6351 297.5932,394.3701 297.5932,398.9761"/>
    <path fill="#070707" d="M267.6191,345.3511 L195.2871,345.3511 C195.5111,342.8291 195.6791,340.3051 195.7901,337.7831 L267.0361,337.7831 C267.1801,340.2991 267.3801,342.8221 267.6191,345.3511"/>
    <path fill="#3D386A" d="M428.5224,78.1793 L428.5224,325.2793 C428.5224,332.3043 422.8314,337.9943 415.8114,337.9943 L46.7444,337.9943 C39.7184,337.9943 34.0274,332.3043 34.0274,325.2793 L34.0274,78.1793 C34.0274,71.1543 39.7184,65.4633 46.7444,65.4633 L415.8114,65.4633 C422.8314,65.4633 428.5224,71.1543 428.5224,78.1793"/>
    <path fill="#EAEEEF" d="M428.5205,290.8961 L428.5205,325.2761 C428.5205,332.3061 422.8305,337.9961 415.8105,337.9961 L46.7405,337.9961 C39.7205,337.9961 34.0305,332.3061 34.0305,325.2761 L34.0305,290.8961 L428.5205,290.8961 Z"/>
    <mask id="imgcourse-b" fill="#fff">
      <use xlink:href="#imgcourse-a"/>
    </mask>
    <polygon fill="#749BE8" points="52.112 274.909 410.436 274.909 410.436 84.812 52.112 84.812" mask="url(#imgcourse-b)"/>
    <polygon fill="#9FBFF4" points="331.712 130.973 400.003 130.973 400.003 92.511 331.712 92.511" mask="url(#imgcourse-b)"/>
    <path fill="#FFF" d="M376.9638,111.7422 C376.9638,117.8762 371.9908,122.8482 365.8578,122.8482 C359.7238,122.8482 354.7508,117.8762 354.7508,111.7422 C354.7508,105.6082 359.7238,100.6352 365.8578,100.6352 C371.9908,100.6352 376.9638,105.6082 376.9638,111.7422" mask="url(#imgcourse-b)"/>
    <polygon fill="#9FBFF4" points="370.89 111.87 363.919 107.182 363.919 116.558" mask="url(#imgcourse-b)"/>
    <polygon fill="#9FBFF4" points="331.712 176.238 400.003 176.238 400.003 137.776 331.712 137.776" mask="url(#imgcourse-b)"/>
    <path fill="#FFF" d="M376.9638,157.0069 C376.9638,163.1409 371.9908,168.1129 365.8578,168.1129 C359.7238,168.1129 354.7508,163.1409 354.7508,157.0069 C354.7508,150.8729 359.7238,145.9009 365.8578,145.9009 C371.9908,145.9009 376.9638,150.8729 376.9638,157.0069" mask="url(#imgcourse-b)"/>
    <polygon fill="#9FBFF4" points="370.89 157.135 363.919 152.447 363.919 161.823" mask="url(#imgcourse-b)"/>
    <polygon fill="#9FBFF4" points="331.712 221.503 400.003 221.503 400.003 183.041 331.712 183.041" mask="url(#imgcourse-b)"/>
    <path fill="#FFF" d="M376.9638,202.2715 C376.9638,208.4055 371.9908,213.3785 365.8578,213.3785 C359.7238,213.3785 354.7508,208.4055 354.7508,202.2715 C354.7508,196.1375 359.7238,191.1655 365.8578,191.1655 C371.9908,191.1655 376.9638,196.1375 376.9638,202.2715" mask="url(#imgcourse-b)"/>
    <polygon fill="#9FBFF4" points="370.89 202.399 363.919 197.712 363.919 207.088" mask="url(#imgcourse-b)"/>
    <polygon fill="#9FBFF4" points="331.712 266.767 400.003 266.767 400.003 228.305 331.712 228.305" mask="url(#imgcourse-b)"/>
    <path fill="#FFF" d="M376.9638,247.5367 C376.9638,253.6707 371.9908,258.6427 365.8578,258.6427 C359.7238,258.6427 354.7508,253.6707 354.7508,247.5367 C354.7508,241.4017 359.7238,236.4307 365.8578,236.4307 C371.9908,236.4307 376.9638,241.4017 376.9638,247.5367" mask="url(#imgcourse-b)"/>
    <polygon fill="#9FBFF4" points="370.89 247.665 363.919 242.977 363.919 252.352" mask="url(#imgcourse-b)"/>
    <polygon fill="#9FBFF4" points="62.724 237.56 322.265 237.56 322.265 92.496 62.724 92.496" mask="url(#imgcourse-b)"/>
    <polygon fill="#6389C6" points="63.039 250.922 205.881 250.922 205.881 244.007 63.039 244.007" mask="url(#imgcourse-b)"/>
    <polygon fill="#6389C6" points="63.038 263.496 122.656 263.496 122.656 256.581 63.038 256.581" mask="url(#imgcourse-b)"/>
    <polygon fill="#6389C6" points="229.952 263.496 271.354 263.496 271.354 256.581 229.952 256.581" mask="url(#imgcourse-b)"/>
    <polygon fill="#6389C6" points="128.63 263.496 224.354 263.496 224.354 256.581 128.63 256.581" mask="url(#imgcourse-b)"/>
    <polygon fill="#6389C6" points="211.72 250.922 306.047 250.922 306.047 244.007 211.72 244.007" mask="url(#imgcourse-b)"/>
    <path fill="#000" d="M352.0859,148.1954 L339.0999,151.7444 C338.5869,151.7554 338.6569,151.1194 339.0879,151.0084 L353.4159,146.1144 C354.2859,145.8414 354.7469,144.9334 354.4729,144.0634 C354.1999,143.1944 353.2299,142.7484 352.3579,143.0224 L338.3989,147.5254 C338.0209,147.5924 337.9179,147.3134 337.8559,147.0984 C337.7389,146.7024 338.0749,146.5454 338.0749,146.5454 L349.5349,142.3744 C350.4049,142.1014 351.0699,141.0254 350.7959,140.1544 C350.5239,139.2844 349.5979,138.8014 348.7279,139.0754 L335.9829,143.4124 C335.9829,143.4124 331.3079,144.4814 329.3529,145.3484 C329.3529,145.3484 326.8159,146.3374 326.2099,145.7704 C325.5509,145.1554 329.0159,139.2154 329.0159,139.2154 C329.5119,138.4484 329.6769,136.9974 328.9889,136.1164 C328.3619,135.3144 327.7399,135.0924 327.4309,135.5794 C327.4309,135.5794 326.9989,136.5304 326.4219,137.4174 C324.7599,139.9744 321.6029,143.9004 320.5839,145.2794 C318.0489,148.7044 317.2909,152.0544 317.2759,152.1184 C316.7449,152.2524 316.2229,152.3844 315.6989,152.5174 L314.9099,150.8224 L260.5519,165.7084 L249.3269,152.0964 L225.4389,122.6034 C224.8789,121.9134 224.2629,121.2974 223.6079,120.7414 C219.3939,116.4884 212.9629,112.9634 203.1899,111.5974 C202.4259,110.2714 201.3839,108.9364 199.9679,107.6124 L200.0179,99.9474 C206.1399,95.2444 209.4969,86.4234 210.8069,76.9934 C210.8209,76.8894 210.8299,76.7844 210.8439,76.6794 C213.8289,76.6754 216.3909,74.4204 216.7099,71.3844 C216.9689,68.9094 215.6609,66.6354 213.5879,65.5404 C216.2599,56.5154 218.5279,44.3864 214.4649,37.1674 C216.7779,33.8864 219.0479,30.0174 221.2469,25.4454 C221.2469,25.4454 199.6279,18.6384 187.9539,24.9584 C187.9539,24.9584 190.7649,20.5834 195.7369,19.3684 C195.7369,19.3684 173.6859,18.3954 159.4179,37.5984 C159.4179,37.5984 159.4259,37.6084 159.4299,37.6124 C159.4259,37.6144 159.4219,37.6164 159.4179,37.6184 C159.4179,37.6184 156.1829,51.9074 158.6539,66.3974 C157.6169,67.3394 156.9049,68.6474 156.7479,70.1504 C156.4239,73.2264 158.5229,75.9944 161.5039,76.5694 C161.9029,77.5354 162.3459,78.4834 162.8259,79.4134 C165.1309,90.3044 169.9579,97.8724 176.1869,101.6744 L176.1469,107.7414 C176.1299,107.6564 176.1219,107.6084 176.1219,107.6084 C174.9059,108.7444 173.9599,109.8854 173.2359,111.0224 C163.2419,111.9554 150.9779,115.1784 144.3989,124.7114 C143.7869,125.4024 143.2339,126.1624 142.7539,126.9924 C142.4139,127.5814 136.3049,141.3714 126.5319,162.6634 L113.8679,187.6194 C113.8679,187.6194 112.1959,234.7844 114.2029,253.8524 L116.5939,253.8084 C116.7269,255.2724 116.8359,256.3944 116.9069,257.1104 C115.8829,258.7024 113.3709,263.6544 113.3939,273.9204 L111.9449,285.9554 C111.8689,286.8164 112.1959,287.6544 113.0549,287.7334 C113.9139,287.8114 114.4749,287.2534 114.5529,286.3944 L116.5429,276.1184 L116.5399,276.1164 C116.6359,275.6934 117.1899,275.8154 117.1039,276.4624 L115.8209,291.3684 C115.7439,292.2284 116.3759,292.9874 117.2349,293.0654 C118.0939,293.1434 118.8529,292.5084 118.9309,291.6504 L120.6519,278.2974 C120.8399,277.8204 121.3989,278.1304 121.3359,278.5704 L120.3399,293.6784 C120.2569,294.5864 120.9189,295.3624 121.8269,295.4434 C122.7339,295.5264 123.5189,294.8014 123.6019,293.8924 L124.8159,279.2744 C124.8999,278.8994 125.1969,278.9114 125.4199,278.9374 C125.8299,278.9834 125.8449,279.3534 125.8449,279.3534 L125.2849,291.5354 C125.2029,292.4434 125.9409,293.4714 126.8489,293.5534 C127.7569,293.6364 128.5589,292.9674 128.6419,292.0594 L129.5419,278.6274 C129.5419,278.6274 130.3539,273.9004 130.3059,271.7624 C130.3059,271.7624 130.3689,269.0404 131.1259,268.6984 C131.9469,268.3274 136.0969,273.8114 136.0969,273.8114 C136.6129,274.5644 137.8889,275.2754 138.9669,274.9794 C139.9489,274.7084 140.3929,274.2194 140.0619,273.7474 C140.0619,273.7474 139.3509,272.9824 138.7539,272.1094 C137.0329,269.5904 134.6239,265.1664 133.7439,263.6954 C131.5579,260.0374 128.7569,258.0484 128.7039,258.0104 C128.9289,256.4994 129.1469,255.0204 129.3569,253.5714 L132.2659,253.5184 L137.6189,194.3094 L143.0549,183.8544 C145.3729,211.7824 147.5429,237.7204 147.5429,237.7204 C147.5429,237.7204 207.5819,237.5634 233.1999,237.5634 L231.8119,169.9304 L251.8839,190.1284 C254.7829,193.0444 259.1889,193.8544 262.9349,192.1594 L321.7669,165.5414 L320.7949,163.4554 C320.8629,163.4194 320.9229,163.3864 320.9829,163.3544 C322.8479,163.6854 328.3859,164.0994 337.8529,160.1284 L349.5189,156.8344 C350.3409,156.5744 350.9889,155.9494 350.7309,155.1264 C350.4729,154.3034 349.7429,153.9994 348.9199,154.2584 L338.6699,156.3764 L338.6689,156.3794 C338.2399,156.4534 338.1409,155.8954 338.7709,155.7254 L353.0229,151.1744 C353.8459,150.9144 354.3039,150.0394 354.0449,149.2164 C353.7859,148.3934 352.9079,147.9374 352.0859,148.1954" mask="url(#imgcourse-b)"/>
    <path fill="#F4B799" d="M216.332,124.0147 C212.613,119.3977 205.856,118.6707 201.24,122.3897 C196.623,126.1067 195.895,132.8637 199.614,137.4797 C200.199,138.2057 246.668,185.8917 246.668,185.8917 C249.835,189.6897 255.469,190.2647 259.335,187.1517 C263.201,184.0377 263.838,178.4097 260.803,174.5057 L216.332,124.0147 Z" mask="url(#imgcourse-b)"/>
    <path fill="#37A070" d="M244.2973,152.0967 L220.4093,122.6037 C215.5703,116.6277 206.7763,115.6737 200.7673,120.4867 C194.7383,125.3157 193.7613,134.1487 198.5893,140.1777 C199.0153,140.7087 209.6513,151.4037 225.9483,168.2337 C230.9053,164.4837 238.1803,159.0357 244.2973,152.0967" mask="url(#imgcourse-b)"/>
    <path fill="#F4B799" d="M255.8589,188.8633 C251.1139,190.2543 246.1129,187.5943 244.6349,182.8553 C243.1579,178.1163 245.7339,172.9223 250.4289,171.3713 C250.4289,171.3713 265.0279,163.9473 313.2989,151.8523 L316.7499,162.9223 C316.7499,162.9223 278.7399,183.7443 256.4559,188.6603 C256.3099,188.6933 255.8589,188.8633 255.8589,188.8633" mask="url(#imgcourse-b)"/>
    <path fill="#F4B799" d="M323.9599,136.1168 C324.6479,136.9978 324.4819,138.4488 323.9859,139.2148 C323.9859,139.2148 320.5219,145.1558 321.1799,145.7698 C321.7869,146.3378 324.3239,145.3488 324.3239,145.3488 C326.2779,144.4808 330.9539,143.4118 330.9539,143.4118 L343.6969,139.0748 C344.5669,138.8028 345.4939,139.2848 345.7669,140.1548 C346.0409,141.0248 345.3759,142.1018 344.5059,142.3748 L333.0449,146.5448 C333.0449,146.5448 332.7099,146.7018 332.8259,147.0978 C332.8889,147.3138 332.9909,147.5918 333.3699,147.5258 L347.3289,143.0218 C348.1999,142.7488 349.1709,143.1938 349.4429,144.0638 C349.7179,144.9328 349.2569,145.8418 348.3869,146.1148 L334.0589,151.0088 C333.6279,151.1188 333.5579,151.7548 334.0699,151.7438 L347.0569,148.1958 C347.8789,147.9378 348.7569,148.3938 349.0159,149.2168 C349.2739,150.0398 348.8159,150.9148 347.9929,151.1738 L333.7409,155.7258 C333.1109,155.8948 333.2109,156.4528 333.6399,156.3798 L333.6399,156.3758 L343.8909,154.2588 C344.7129,153.9998 345.4429,154.3038 345.7009,155.1258 C345.9599,155.9498 345.3119,156.5748 344.4889,156.8348 L332.8229,160.1288 C320.9419,165.1118 315.2299,163.1898 315.2299,163.1898 C305.3319,159.5328 312.2459,152.1248 312.2459,152.1248 C312.2459,152.1248 312.9959,148.7378 315.5539,145.2798 C316.5739,143.9008 319.7309,139.9748 321.3929,137.4178 C321.9689,136.5308 322.4019,135.5788 322.4019,135.5788 C322.7099,135.0928 323.3329,135.3138 323.9599,136.1168" mask="url(#imgcourse-b)"/>
    <path fill="#37A070" d="M244.2973,152.0967 L255.5223,165.7087 L309.8803,150.8227 L316.7373,165.5407 L257.9053,192.1597 C254.1593,193.8547 249.7533,193.0447 246.8543,190.1277 L224.7473,167.8827 L244.2973,152.0967 Z" mask="url(#imgcourse-b)"/>
    <path fill="#3CAD7E" d="M183.8808,111.1275 C183.8808,111.1275 131.4738,104.2145 134.8188,145.0245 C137.7708,181.0315 142.5138,237.7205 142.5138,237.7205 C142.5138,237.7205 202.5518,237.5635 228.1708,237.5635 L226.2528,144.1325 C226.2528,144.1325 231.5488,108.4515 183.8808,111.1275" mask="url(#imgcourse-b)"/>
    <path fill="#F4B799" d="M182.8911,128.812848 L182.8911,128.812848 C176.3141,128.7696 171.0161,123.4036 171.0591,116.8256 L171.1821,97.8356 L195.0011,97.9896 L194.8781,116.9796 C194.8351,123.5576 189.4691,128.8546 182.8911,128.812848" mask="url(#imgcourse-b)"/>
    <path fill="#000" d="M171.1098,101.6109 C171.1098,101.6109 184.7228,106.8219 194.9798,99.6429 L194.9438,105.4189 C194.9438,105.4189 177.3658,110.3289 171.1098,101.6109" mask="url(#imgcourse-b)"/>
    <path fill="#32324C" d="M154.3882,37.6187 C154.3882,37.6187 146.3692,72.9367 165.1482,88.8267 C183.9272,104.7167 204.3782,77.2137 204.3782,77.2137 C204.3782,77.2137 220.3232,41.1187 205.0112,32.7407 C189.6992,24.3627 182.9892,23.1737 154.3882,37.6187" mask="url(#imgcourse-b)"/>
    <path fill="#F4B799" d="M163.4805,71.3843 C163.1395,74.6323 160.2305,76.9893 156.9815,76.6483 C153.7335,76.3073 151.3765,73.3983 151.7175,70.1503 C152.0585,66.9023 154.9685,64.5453 158.2165,64.8853 C161.4645,65.2263 163.8215,68.1353 163.4805,71.3843" mask="url(#imgcourse-b)"/>
    <path fill="#000" d="M159.8716,70.7671 C159.8716,72.3381 158.5976,73.6121 157.0266,73.6121 C155.4546,73.6121 154.1816,72.3381 154.1816,70.7671 C154.1816,69.1961 155.4546,67.9221 157.0266,67.9221 C158.5976,67.9221 159.8716,69.1961 159.8716,70.7671" mask="url(#imgcourse-b)"/>
    <path fill="#F4B799" d="M211.6802,71.3843 C211.3392,74.6323 208.4302,76.9893 205.1812,76.6483 C201.9332,76.3073 199.5762,73.3983 199.9172,70.1503 C200.2582,66.9023 203.1672,64.5453 206.4152,64.8853 C209.6642,65.2263 212.0212,68.1353 211.6802,71.3843" mask="url(#imgcourse-b)"/>
    <path fill="#000" d="M209.0073,70.7671 C209.0073,72.3381 207.7333,73.6121 206.1623,73.6121 C204.5903,73.6121 203.3173,72.3381 203.3173,70.7671 C203.3173,69.1961 204.5903,67.9221 206.1623,67.9221 C207.7333,67.9221 209.0073,69.1961 209.0073,70.7671" mask="url(#imgcourse-b)"/>
    <path fill="#F4B799" d="M205.7778,76.9937 C204.2788,87.7777 200.1038,97.7657 192.1778,101.7097 C176.2038,109.6567 161.5268,100.3617 157.4328,77.5767 C157.3818,77.2757 157.3218,76.9837 157.2818,76.6817 C155.9538,68.6247 156.4368,60.5867 157.6038,53.5957 C157.8648,52.0767 158.1368,50.6087 158.4488,49.1997 C162.3818,31.0537 185.3778,24.6557 197.7908,38.4667 C200.0638,40.9917 201.9048,43.9387 203.2128,47.1677 C204.2288,49.6927 205.0438,52.8317 205.5868,56.3017 C206.5918,62.5587 206.7538,69.9427 205.7778,76.9937" mask="url(#imgcourse-b)"/>
    <path fill="#32324C" d="M174.5254 69.7344C174.5254 71.3294 173.5604 72.6224006 172.3684 72.6224006 171.1764 72.6234 170.2104 71.3304 170.2094 69.7344 170.2094 68.1394 171.1744 66.8464 172.3664 66.8464 173.5584 66.8464 174.5254 68.1394 174.5254 69.7344M189.56 69.7344C189.56 71.3294 190.525 72.6224006 191.717 72.6224006 192.909 72.6234 193.875 71.3304 193.876 69.7344 193.876 68.1394 192.911 66.8464 191.719 66.8464 190.527 66.8464 189.56 68.1394 189.56 69.7344M174.7007 57.6739C175.0477 58.4819 174.5617 59.4029 173.6957 59.5559 171.1447 60.0089 166.3257 61.1159 163.4917 63.3639 163.3107 63.5069 163.0667 63.2969 163.1987 63.1089 164.4957 61.2589 167.5537 57.9229 173.2307 56.8619 173.8447 56.7479 174.4537 57.0989 174.7007 57.6739M188.8432 57.8463C188.5132 58.6603 189.0192 59.5723 189.8882 59.7063 192.4482 60.1043 197.2892 61.1083 200.1722 63.2943 200.3552 63.4333 200.5952 63.2183 200.4592 63.0333 199.1222 61.2113 195.9942 57.9423 190.2962 57.0033 189.6782 56.9023 189.0772 57.2663 188.8432 57.8463" mask="url(#imgcourse-b)"/>
    <path fill="#3CAD7E" d="M171.0581,126.2921 C171.0581,126.2921 182.8771,136.9971 197.1501,126.4031 L182.6611,122.4101 L171.0581,126.2921 Z" mask="url(#imgcourse-b)"/>
    <path fill="#000" d="M195.0591 108.7579C195.0591 108.7579 193.0241 114.3919 182.6541 122.4659L191.5751 133.6789C191.5751 133.6789 207.7701 122.4059 195.0591 108.7579M170.8906 108.5069C170.8906 108.5069 172.2916 114.3519 182.6616 122.4249L174.7376 133.4229C174.7376 133.4229 158.1796 122.1559 170.8906 108.5069" mask="url(#imgcourse-b)"/>
    <polygon fill="#000" points="185.789 130.972 189.4 125.726 183.356 122.56 177.617 126.204 182.197 131.338 179.821 221.347 189.038 232.862 196.313 220.234" mask="url(#imgcourse-b)"/>
    <polygon fill="#32324C" points="176.828 125.902 183.1 133.317 188.62 125.735 182.661 122.41" mask="url(#imgcourse-b)"/>
    <polygon fill="#32324C" points="181.316 130.306 176.521 221.07 185.776 230.437 194.473 219.843 184.773 129.972" mask="url(#imgcourse-b)"/>
    <path fill="#FFF" d="M194.9336 107.608C194.9336 107.608 193.0246 115.42 182.6546 122.445L191.5746 132.202C191.5746 132.202 207.6446 119.483 194.9336 107.608M171.0928 107.608C171.0928 107.608 172.2918 115.385 182.6608 122.41L174.7378 131.979C174.7378 131.979 158.3818 119.483 171.0928 107.608" mask="url(#imgcourse-b)"/>
    <path fill="#32324C" d="M154.3882,37.5982 C154.3882,37.5982 190.2752,79.4062 216.2172,25.4452 C216.2172,25.4452 194.5982,18.6392 182.9242,24.9582 C182.9242,24.9582 185.7352,20.5832 190.7072,19.3682 C190.7072,19.3682 168.6562,18.3952 154.3882,37.5982" mask="url(#imgcourse-b)"/>
    <path fill="#B22828" d="M191.6348,88.0796 C191.6348,88.0796 181.6958,90.3356 172.3688,88.4976 C172.3688,88.4976 174.1978,97.0016 182.1868,96.8096 C189.7178,96.6306 191.5828,89.7326 191.6348,88.0796" mask="url(#imgcourse-b)"/>
    <path fill="#FFF" d="M181.8774,92.3721 C175.7374,92.5051 173.8784,89.9971 173.0754,88.6271 C180.3114,89.8931 186.1024,88.9171 191.1484,88.1811 C190.6344,89.7341 187.6674,92.2471 181.8774,92.3721" mask="url(#imgcourse-b)"/>
    <path stroke="#000" stroke-linecap="round" stroke-linejoin="round" stroke-width=".881" d="M181.7539,70.2852 C181.9899,72.4862 182.2949,74.8442 183.7739,76.4912 C184.7219,77.5452 186.1219,78.2702 186.6109,79.6012 C187.0869,80.8972 186.4839,82.4072 185.4479,83.3192 C184.4119,84.2312 183.0269,84.6412 181.6639,84.8602" mask="url(#imgcourse-b)"/>
    <path fill="#37A070" d="M209.0503,166.712 L201.3203,166.712 C198.8323,166.712 196.8153,164.695 196.8153,162.207 L196.8153,147.309 L213.5553,147.309 L213.5553,162.207 C213.5553,164.695 211.5383,166.712 209.0503,166.712" mask="url(#imgcourse-b)"/>
    <path fill="#F4B799" d="M159.2226,137.6641 C162.1756,132.5231 160.4026,125.9631 155.2636,123.0101 C150.1236,120.0561 143.5636,121.8281 140.6106,126.9681 C140.1456,127.7771 112.5626,188.3781 112.5626,188.3781 C110.1726,192.7061 111.6796,198.1651 115.9826,200.6391 C120.2866,203.1121 125.7636,201.6641 128.2996,197.4201 L159.2226,137.6641 Z" mask="url(#imgcourse-b)"/>
    <path fill="#3CAD7E" d="M143.1968,173.9102 L162.0158,140.9522 C165.8298,134.2752 163.5298,125.7332 156.8648,121.8792 C150.1778,118.0132 141.5928,120.3062 137.7248,126.9922 C137.3848,127.5812 131.2758,141.3712 121.5028,162.6632 C126.7958,165.9232 134.5108,170.7272 143.1968,173.9102" mask="url(#imgcourse-b)"/>
    <path fill="#F4B799" d="M111.4541,191.8257 C111.9961,186.9107 116.3751,183.3177 121.3181,183.7777 C126.2601,184.2367 130.0631,188.6137 129.6891,193.5437 C129.6891,193.5437 130.9241,209.8747 123.5151,259.0847 L111.9691,258.0107 C111.9691,258.0107 107.3751,214.9147 111.4121,192.4547 C111.4371,192.3067 111.4541,191.8257 111.4541,191.8257" mask="url(#imgcourse-b)"/>
    <path fill="#F4B799" d="M133.937,274.9791 C132.859,275.2751 131.583,274.5641 131.067,273.8111 C131.067,273.8111 126.917,268.3281 126.097,268.6991 C125.339,269.0411 125.276,271.7621 125.276,271.7621 C125.325,273.9001 124.512,278.6271 124.512,278.6271 L123.612,292.0591 C123.529,292.9671 122.728,293.6361 121.819,293.5531 C120.911,293.4711 120.173,292.4431 120.255,291.5361 L120.816,279.3531 C120.816,279.3531 120.8,278.9831 120.39,278.9371 C120.167,278.9121 119.871,278.8991 119.786,279.2741 L118.572,293.8921 C118.489,294.8011 117.705,295.5261 116.797,295.4431 C115.889,295.3621 115.228,294.5861 115.311,293.6781 L116.306,278.5711 C116.37,278.1301 115.81,277.8211 115.623,278.2971 L113.902,291.6501 C113.823,292.5081 113.064,293.1431 112.206,293.0651 C111.346,292.9881 110.714,292.2281 110.792,291.3691 L112.075,276.4621 C112.16,275.8151 111.607,275.6931 111.51,276.1171 L111.513,276.1191 L109.523,286.3941 C109.446,287.2531 108.885,287.8111 108.026,287.7331 C107.166,287.6551 106.839,286.8161 106.916,285.9561 L108.364,273.9201 C108.336,261.0381 112.307,256.5041 112.307,256.5041 C119.491,248.7751 123.669,258.0071 123.669,258.0071 C123.669,258.0071 126.507,260.0021 128.714,263.6951 C129.595,265.1661 132.003,269.5901 133.724,272.1091 C134.321,272.9821 135.033,273.7481 135.033,273.7481 C135.363,274.2191 134.919,274.7081 133.937,274.9791" mask="url(#imgcourse-b)"/>
    <path fill="#3CAD7E" d="M121.5024,162.6636 L108.8384,187.6196 C108.8384,187.6196 107.1664,234.7846 109.1734,253.8516 L127.2364,253.5176 L132.5894,194.3096 L143.1964,173.9106 L121.5024,162.6636 Z" mask="url(#imgcourse-b)"/>
    <path fill="#3E376B" d="M414.9101,418.4009 C414.9101,421.5969 399.1051,424.1889 379.6101,424.1889 C360.1141,424.1889 344.3091,421.5969 344.3091,418.4009 C344.3091,415.2039 360.1141,412.6119 379.6101,412.6119 C399.1051,412.6119 414.9101,415.2039 414.9101,418.4009" mask="url(#imgcourse-b)"/>
    <polygon fill="#EAEEEF" points="407.476 337.583 407.231 341.684 407.034 345.095 405.981 362.772 403.853 398.663 402.546 420.664 355.536 420.664 354.229 398.663 352.101 362.772 351.048 345.095 350.957 343.533 350.851 341.684 350.604 337.583" mask="url(#imgcourse-b)"/>
    <polygon fill="#3CAD7E" points="408.307 362.772 405.02 398.663 352.84 398.663 349.553 362.772" mask="url(#imgcourse-b)"/>
    <path fill="#EAEEEF" d="M392.3965,381.1734 C392.3965,388.4184 386.5235,394.2914 379.2785,394.2914 C372.0335,394.2914 366.1605,388.4184 366.1605,381.1734 C366.1605,373.9284 372.0335,368.0544 379.2785,368.0544 C386.5235,368.0544 392.3965,373.9284 392.3965,381.1734" mask="url(#imgcourse-b)"/>
    <path fill="#070707" d="M408.3066,362.772 L405.0196,398.663 L403.8526,398.663 L402.5456,420.664 L386.7666,420.664 C390.5716,417.918 393.9826,414.771 396.2496,410.703 C398.3046,407.012 399.2496,402.878 399.8086,398.663 C400.0726,396.649 400.2526,394.619 400.4256,392.614 C401.2806,382.677 402.1436,372.733 402.3566,362.772 C402.4306,359.131 402.4226,355.482 402.2996,351.834 C402.2336,349.935 402.0526,347.838 400.6716,346.532 C399.3486,345.275 397.3516,345.152 395.5276,345.102 C389.6256,344.929 383.7256,344.765 377.8246,344.592 C372.6796,344.445 367.5356,344.296 362.3896,344.149 C358.8646,344.05 354.4426,344.626 350.9576,343.533 L350.8516,341.683 L350.6046,337.583 L407.4766,337.583 L407.2306,341.683 L407.0336,345.094 L405.9816,362.772 L408.3066,362.772 Z" mask="url(#imgcourse-b)"/>
    <path fill="#3D386A" d="M409.5703,341.9546 L348.5133,341.9546 C347.8343,341.9546 347.2823,341.4026 347.2823,340.7236 L347.2823,333.1826 C347.2823,332.5026 347.8343,331.9516 348.5133,331.9516 L409.5703,331.9516 C410.2503,331.9516 410.8013,332.5026 410.8013,333.1826 L410.8013,340.7236 C410.8013,341.4026 410.2503,341.9546 409.5703,341.9546" mask="url(#imgcourse-b)"/>
    <path fill="#322F5B" d="M407.3945,331.9791 L350.6895,331.9791 L352.0175,326.5641 C352.2035,325.8071 352.8805,325.2761 353.6605,325.2761 L404.4245,325.2761 C405.2035,325.2761 405.8805,325.8071 406.0665,326.5641 L407.3945,331.9791 Z" mask="url(#imgcourse-b)"/>
    <path fill="#070707" d="M339.3369,65.5225 C339.3369,65.5225 402.4449,74.3695 428.5349,117.4335 L428.4939,109.1555 C428.4939,109.1555 413.7259,57.7235 339.3369,65.5225" mask="url(#imgcourse-b)"/>
    <path fill="#262B31" d="M472.6093,74.0582 L443.4283,75.4292 L442.2473,75.4852 L441.2163,78.0182 L428.4943,109.1562 C428.4943,109.1562 405.2593,67.4222 339.3373,65.5222 L352.1453,38.9602 L331.2743,13.8262 L419.4853,1.0272 L472.6093,74.0582 Z" mask="url(#imgcourse-b)"/>
    <path fill="#1F2428" d="M331.2739,13.8257 L352.1459,38.9607 C352.1459,38.9607 421.3389,37.4507 441.2169,78.0187 L442.2469,75.4857 L472.6089,74.0577 L419.4849,1.0267 L331.2739,13.8257 Z" mask="url(#imgcourse-b)"/>
    <path fill="#141516" d="M443.4287,75.4288 L442.2467,75.4858 L441.2167,78.0188 C436.8307,72.3378 413.1397,51.7998 396.4467,45.1358 C397.3547,45.3338 428.3617,51.1168 443.4287,75.4288" mask="url(#imgcourse-b)"/>
    <polygon fill="#1F2428" points="472.609 74.058 476.183 146.247 473.041 146.247 471.154 73.636" mask="url(#imgcourse-b)"/>
    <path fill="#1F2428" d="M476.1054,147.0338 L473.0144,147.0338 C472.5394,147.0338 472.1504,146.6448 472.1504,146.1688 C472.1504,145.6938 472.5394,145.3048 473.0144,145.3048 L476.1054,145.3048 C476.5814,145.3048 476.9694,145.6938 476.9694,146.1688 C476.9694,146.6448 476.5814,147.0338 476.1054,147.0338" mask="url(#imgcourse-b)"/>
    <polygon fill="#1F2428" points="477.647 168.367 476.986 168.386 476.154 168.414 475.067 168.452 474.613 168.471 473.157 168.518 472.562 168.537 471.626 168.566 473.299 146.352 475.974 146.352" mask="url(#imgcourse-b)"/>
    <polygon fill="#141516" points="473.157 168.518 474.027 154.424 472.562 168.537" mask="url(#imgcourse-b)"/>
    <polygon fill="#141516" points="475.067 168.452 474.613 168.471 474.481 157.6" mask="url(#imgcourse-b)"/>
    <polygon fill="#141516" points="476.986 168.386 476.154 168.414 475.926 156.154" mask="url(#imgcourse-b)"/>
    <path fill="#3E376B" d="M241.2602,418.2935 C241.2602,422.1265 199.3092,425.2325 147.5602,425.2325 C95.8122,425.2325 53.8612,422.1265 53.8612,418.2935 C53.8612,414.4615 95.8122,411.3555 147.5602,411.3555 C199.3092,411.3555 241.2602,414.4615 241.2602,418.2935" mask="url(#imgcourse-b)"/>
    <polygon fill="#EFA73F" points="70.569 419.614 226.285 419.614 226.285 393.962 70.569 393.962" mask="url(#imgcourse-b)"/>
    <path fill="#EFA73F" d="M214.7202,403.9283 L188.6802,403.9283 L188.6652,403.3343 L188.6012,400.0603 C188.5542,397.9883 188.3562,395.9473 188.0002,393.9613 C184.6622,375.1753 168.0432,360.7553 148.4272,360.7553 C128.8022,360.7553 112.1912,375.1753 108.8532,393.9613 C108.4972,395.9473 108.2992,397.9883 108.2522,400.0603 L108.1642,403.9283 L82.1252,403.9283 L82.1882,399.9173 C82.2202,397.9163 82.3382,395.9313 82.5442,393.9613 C84.1342,378.7583 90.8972,364.6623 101.9392,353.7713 C114.4212,341.4623 130.9292,334.6843 148.4272,334.6843 C150.3962,334.6843 152.3582,334.7713 154.2962,334.9453 C169.5862,336.2823 183.8402,342.8473 194.9132,353.7713 C205.9562,364.6623 212.7192,378.7583 214.3092,393.9613 C214.5142,395.9313 214.6332,397.9163 214.6652,399.9173 L214.7202,403.9283 Z" mask="url(#imgcourse-b)"/>
    <path fill="#D89032" d="M76.9009 417.732L76.9009 417.732C76.2859 417.732 75.7829 417.229 75.7829 416.614L75.7829 407.67C75.7829 407.055 76.2859 406.552 76.9009 406.552 77.5159 406.552 78.0189 407.055 78.0189 407.67L78.0189 416.614C78.0189 417.229 77.5159 417.732 76.9009 417.732M92.7949 417.732L92.7949 417.732C92.1799 417.732 91.6769 417.229 91.6769 416.614L91.6769 407.67C91.6769 407.055 92.1799 406.552 92.7949 406.552 93.4099 406.552 93.9129 407.055 93.9129 407.67L93.9129 416.614C93.9129 417.229 93.4099 417.732 92.7949 417.732M108.6894 417.732L108.6894 417.732C108.0744 417.732 107.5714 417.229 107.5714 416.614L107.5714 407.67C107.5714 407.055 108.0744 406.552 108.6894 406.552 109.3044 406.552 109.8074 407.055 109.8074 407.67L109.8074 416.614C109.8074 417.229 109.3044 417.732 108.6894 417.732M80.874 417.732L80.874 417.732C80.259 417.732 79.756 417.229 79.756 416.614L79.756 410.288C79.756 409.672 80.259 409.169 80.874 409.169 81.489 409.169 81.992 409.672 81.992 410.288L81.992 416.614C81.992 417.229 81.489 417.732 80.874 417.732M84.8476 417.732L84.8476 417.732C84.2326 417.732 83.7296 417.229 83.7296 416.614L83.7296 410.288C83.7296 409.672 84.2326 409.169 84.8476 409.169 85.4626 409.169 85.9656 409.672 85.9656 410.288L85.9656 416.614C85.9656 417.229 85.4626 417.732 84.8476 417.732M88.8213 417.732L88.8213 417.732C88.2063 417.732 87.7033 417.229 87.7033 416.614L87.7033 410.288C87.7033 409.672 88.2063 409.169 88.8213 409.169 89.4363 409.169 89.9393 409.672 89.9393 410.288L89.9393 416.614C89.9393 417.229 89.4363 417.732 88.8213 417.732M96.7685 417.732L96.7685 417.732C96.1535 417.732 95.6505 417.229 95.6505 416.614L95.6505 410.288C95.6505 409.672 96.1535 409.169 96.7685 409.169 97.3835 409.169 97.8865 409.672 97.8865 410.288L97.8865 416.614C97.8865 417.229 97.3835 417.732 96.7685 417.732M100.7422 417.732L100.7422 417.732C100.1272 417.732 99.6242 417.229 99.6242 416.614L99.6242 410.288C99.6242 409.672 100.1272 409.169 100.7422 409.169 101.3572 409.169 101.8602 409.672 101.8602 410.288L101.8602 416.614C101.8602 417.229 101.3572 417.732 100.7422 417.732M104.7158 417.732L104.7158 417.732C104.1008 417.732 103.5978 417.229 103.5978 416.614L103.5978 410.288C103.5978 409.672 104.1008 409.169 104.7158 409.169 105.3308 409.169 105.8338 409.672 105.8338 410.288L105.8338 416.614C105.8338 417.229 105.3308 417.732 104.7158 417.732M124.584 417.732L124.584 417.732C123.969 417.732 123.466 417.229 123.466 416.614L123.466 407.67C123.466 407.055 123.969 406.552 124.584 406.552 125.199 406.552 125.702 407.055 125.702 407.67L125.702 416.614C125.702 417.229 125.199 417.732 124.584 417.732M112.6631 417.732L112.6631 417.732C112.0481 417.732 111.5451 417.229 111.5451 416.614L111.5451 410.288C111.5451 409.672 112.0481 409.169 112.6631 409.169 113.2781 409.169 113.7811 409.672 113.7811 410.288L113.7811 416.614C113.7811 417.229 113.2781 417.732 112.6631 417.732M116.6367 417.732L116.6367 417.732C116.0217 417.732 115.5187 417.229 115.5187 416.614L115.5187 410.288C115.5187 409.672 116.0217 409.169 116.6367 409.169 117.2517 409.169 117.7547 409.672 117.7547 410.288L117.7547 416.614C117.7547 417.229 117.2517 417.732 116.6367 417.732M120.6103 417.732L120.6103 417.732C119.9953 417.732 119.4923 417.229 119.4923 416.614L119.4923 410.288C119.4923 409.672 119.9953 409.169 120.6103 409.169 121.2253 409.169 121.7283 409.672 121.7283 410.288L121.7283 416.614C121.7283 417.229 121.2253 417.732 120.6103 417.732M140.4785 417.732L140.4785 417.732C139.8635 417.732 139.3605 417.229 139.3605 416.614L139.3605 407.67C139.3605 407.055 139.8635 406.552 140.4785 406.552 141.0935 406.552 141.5965 407.055 141.5965 407.67L141.5965 416.614C141.5965 417.229 141.0935 417.732 140.4785 417.732M128.5576 417.732L128.5576 417.732C127.9426 417.732 127.4396 417.229 127.4396 416.614L127.4396 410.288C127.4396 409.672 127.9426 409.169 128.5576 409.169 129.1726 409.169 129.6756 409.672 129.6756 410.288L129.6756 416.614C129.6756 417.229 129.1726 417.732 128.5576 417.732M132.5312 417.732L132.5312 417.732C131.9162 417.732 131.4132 417.229 131.4132 416.614L131.4132 410.288C131.4132 409.672 131.9162 409.169 132.5312 409.169 133.1462 409.169 133.6492 409.672 133.6492 410.288L133.6492 416.614C133.6492 417.229 133.1462 417.732 132.5312 417.732M136.5049 417.732L136.5049 417.732C135.8899 417.732 135.3869 417.229 135.3869 416.614L135.3869 410.288C135.3869 409.672 135.8899 409.169 136.5049 409.169 137.1199 409.169 137.6229 409.672 137.6229 410.288L137.6229 416.614C137.6229 417.229 137.1199 417.732 136.5049 417.732M156.373 417.732L156.373 417.732C155.758 417.732 155.255 417.229 155.255 416.614L155.255 407.67C155.255 407.055 155.758 406.552 156.373 406.552 156.988 406.552 157.491 407.055 157.491 407.67L157.491 416.614C157.491 417.229 156.988 417.732 156.373 417.732M144.4521 417.732L144.4521 417.732C143.8371 417.732 143.3341 417.229 143.3341 416.614L143.3341 410.288C143.3341 409.672 143.8371 409.169 144.4521 409.169 145.0671 409.169 145.5701 409.672 145.5701 410.288L145.5701 416.614C145.5701 417.229 145.0671 417.732 144.4521 417.732M148.4258 417.732L148.4258 417.732C147.8108 417.732 147.3078 417.229 147.3078 416.614L147.3078 410.288C147.3078 409.672 147.8108 409.169 148.4258 409.169 149.0408 409.169 149.5438 409.672 149.5438 410.288L149.5438 416.614C149.5438 417.229 149.0408 417.732 148.4258 417.732M152.3994 417.732L152.3994 417.732C151.7844 417.732 151.2814 417.229 151.2814 416.614L151.2814 410.288C151.2814 409.672 151.7844 409.169 152.3994 409.169 153.0144 409.169 153.5174 409.672 153.5174 410.288L153.5174 416.614C153.5174 417.229 153.0144 417.732 152.3994 417.732M172.2671 417.732L172.2671 417.732C171.6521 417.732 171.1491 417.229 171.1491 416.614L171.1491 407.67C171.1491 407.055 171.6521 406.552 172.2671 406.552 172.8821 406.552 173.3851 407.055 173.3851 407.67L173.3851 416.614C173.3851 417.229 172.8821 417.732 172.2671 417.732M160.3467 417.732L160.3467 417.732C159.7317 417.732 159.2287 417.229 159.2287 416.614L159.2287 410.288C159.2287 409.672 159.7317 409.169 160.3467 409.169 160.9617 409.169 161.4647 409.672 161.4647 410.288L161.4647 416.614C161.4647 417.229 160.9617 417.732 160.3467 417.732M164.3198 417.732L164.3198 417.732C163.7048 417.732 163.2018 417.229 163.2018 416.614L163.2018 410.288C163.2018 409.672 163.7048 409.169 164.3198 409.169 164.9348 409.169 165.4378 409.672 165.4378 410.288L165.4378 416.614C165.4378 417.229 164.9348 417.732 164.3198 417.732M168.2934 417.732L168.2934 417.732C167.6784 417.732 167.1754 417.229 167.1754 416.614L167.1754 410.288C167.1754 409.672 167.6784 409.169 168.2934 409.169 168.9084 409.169 169.4114 409.672 169.4114 410.288L169.4114 416.614C169.4114 417.229 168.9084 417.732 168.2934 417.732M188.1616 417.732L188.1616 417.732C187.5466 417.732 187.0436 417.229 187.0436 416.614L187.0436 407.67C187.0436 407.055 187.5466 406.552 188.1616 406.552 188.7766 406.552 189.2796 407.055 189.2796 407.67L189.2796 416.614C189.2796 417.229 188.7766 417.732 188.1616 417.732M176.2407 417.732L176.2407 417.732C175.6257 417.732 175.1227 417.229 175.1227 416.614L175.1227 410.288C175.1227 409.672 175.6257 409.169 176.2407 409.169 176.8557 409.169 177.3587 409.672 177.3587 410.288L177.3587 416.614C177.3587 417.229 176.8557 417.732 176.2407 417.732M180.2143 417.732L180.2143 417.732C179.5993 417.732 179.0963 417.229 179.0963 416.614L179.0963 410.288C179.0963 409.672 179.5993 409.169 180.2143 409.169 180.8293 409.169 181.3323 409.672 181.3323 410.288L181.3323 416.614C181.3323 417.229 180.8293 417.732 180.2143 417.732M184.188 417.732L184.188 417.732C183.573 417.732 183.07 417.229 183.07 416.614L183.07 410.288C183.07 409.672 183.573 409.169 184.188 409.169 184.803 409.169 185.306 409.672 185.306 410.288L185.306 416.614C185.306 417.229 184.803 417.732 184.188 417.732M204.0561 417.732L204.0561 417.732C203.4411 417.732 202.9381 417.229 202.9381 416.614L202.9381 407.67C202.9381 407.055 203.4411 406.552 204.0561 406.552 204.6711 406.552 205.1741 407.055 205.1741 407.67L205.1741 416.614C205.1741 417.229 204.6711 417.732 204.0561 417.732M192.1352 417.732L192.1352 417.732C191.5202 417.732 191.0172 417.229 191.0172 416.614L191.0172 410.288C191.0172 409.672 191.5202 409.169 192.1352 409.169 192.7502 409.169 193.2532 409.672 193.2532 410.288L193.2532 416.614C193.2532 417.229 192.7502 417.732 192.1352 417.732M196.1089 417.732L196.1089 417.732C195.4939 417.732 194.9909 417.229 194.9909 416.614L194.9909 410.288C194.9909 409.672 195.4939 409.169 196.1089 409.169 196.7239 409.169 197.2269 409.672 197.2269 410.288L197.2269 416.614C197.2269 417.229 196.7239 417.732 196.1089 417.732M200.0825 417.732L200.0825 417.732C199.4675 417.732 198.9645 417.229 198.9645 416.614L198.9645 410.288C198.9645 409.672 199.4675 409.169 200.0825 409.169 200.6975 409.169 201.2005 409.672 201.2005 410.288L201.2005 416.614C201.2005 417.229 200.6975 417.732 200.0825 417.732M219.9507 417.732L219.9507 417.732C219.3357 417.732 218.8327 417.229 218.8327 416.614L218.8327 407.67C218.8327 407.055 219.3357 406.552 219.9507 406.552 220.5657 406.552 221.0687 407.055 221.0687 407.67L221.0687 416.614C221.0687 417.229 220.5657 417.732 219.9507 417.732M208.0298 417.732L208.0298 417.732C207.4148 417.732 206.9118 417.229 206.9118 416.614L206.9118 410.288C206.9118 409.672 207.4148 409.169 208.0298 409.169 208.6448 409.169 209.1478 409.672 209.1478 410.288L209.1478 416.614C209.1478 417.229 208.6448 417.732 208.0298 417.732M212.0034 417.732L212.0034 417.732C211.3884 417.732 210.8854 417.229 210.8854 416.614L210.8854 410.288C210.8854 409.672 211.3884 409.169 212.0034 409.169 212.6184 409.169 213.1214 409.672 213.1214 410.288L213.1214 416.614C213.1214 417.229 212.6184 417.732 212.0034 417.732M215.977 417.732L215.977 417.732C215.362 417.732 214.859 417.229 214.859 416.614L214.859 410.288C214.859 409.672 215.362 409.169 215.977 409.169 216.592 409.169 217.095 409.672 217.095 410.288L217.095 416.614C217.095 417.229 216.592 417.732 215.977 417.732" mask="url(#imgcourse-b)"/>
    <path fill="#070707" d="M226.2847 393.9615L226.2847 419.6135 172.9877 419.6135C172.9797 418.7745 173.0747 417.9445 173.3037 417.1295 174.4827 412.9135 178.5557 410.3115 182.2427 407.9465 184.4407 406.5305 186.6397 405.0275 188.6647 403.3345 191.6157 400.8915 194.1937 398.0745 195.8397 394.6345 195.9497 394.4125 196.0447 394.1835 196.1477 393.9615 200.1587 384.6835 196.3767 373.4425 189.7637 365.7065 182.9857 357.7805 173.7067 352.5215 165.1567 346.5495 161.2567 343.8275 157.2467 340.6885 154.9527 336.4165 154.6597 335.8705 154.4467 335.3805 154.2957 334.9445 169.5857 336.2815 183.8397 342.8475 194.9137 353.7715 205.9557 364.6625 212.7197 378.7585 214.3087 393.9615L226.2847 393.9615zM82.0083 33.5899C89.0793 54.7149 77.6863 77.5709 56.5623 84.6429 35.4373 91.7139 12.5803 80.3199 5.5093 59.1959-1.5617 38.0709 9.8313 15.2149 30.9563 8.1429 52.0803 1.0719 74.9373 12.4649 82.0083 33.5899M311.5429 33.523C318.0899 53.083 307.5409 74.246 287.9819 80.793 268.4219 87.34 247.2589 76.792 240.7119 57.232 234.1649 37.672 244.7129 16.509 264.2729 9.962 283.8329 3.415 304.9959 13.964 311.5429 33.523M80.1382 296.9771C87.0762 318.1091 75.8972 340.9731 55.1692 348.0461 34.4402 355.1201 12.0122 343.7231 5.0732 322.5911-1.8648 301.4591 9.3142 278.5951 30.0432 271.5221 50.7712 264.4491 73.2002 275.8451 80.1382 296.9771M335.2104 337.9957L256.0904 337.9957C256.6204 321.6257 266.9704 306.5757 283.0804 301.0657 303.8104 293.9957 326.2404 305.3957 333.1804 326.5257 334.4304 330.3257 335.0904 334.1857 335.2104 337.9957M463.208 194.897C468.607 211.34 459.908 229.132 443.778 234.636 427.649 240.14 410.196 231.272 404.798 214.829 399.398 198.385 408.098 180.593 424.228 175.089 440.356 169.585 457.81 178.454 463.208 194.897" mask="url(#imgcourse-b)"/>
    <path fill="#DB3A35" d="M77.8266,317.5748 C73.7606,338.0028 53.9046,351.2658 33.4766,347.1998 C13.0496,343.1348 -0.2144,323.2778 3.8516,302.8498 C7.9186,282.4238 27.7736,269.1598 48.2016,273.2248 C68.6296,277.2918 81.8926,297.1468 77.8266,317.5748" mask="url(#imgcourse-b)"/>
    <path fill="#F24338" d="M78.3545,314.9224 C74.2885,335.3504 54.4325,348.6134 34.0055,344.5474 C13.5775,340.4824 0.3135,320.6254 4.3795,300.1984 C8.4465,279.7714 28.3025,266.5074 48.7295,270.5724 C69.1575,274.6394 82.4205,294.4954 78.3545,314.9224" mask="url(#imgcourse-b)"/>
    <g fill="#070707" mask="url(#imgcourse-b)">
      <g transform="translate(11 289.233)">
        <polygon points="1.407 4.791 22.61 .045 21.64 4.916 6.448 7.829 6.432 7.908 19.351 16.416 18.382 21.288 .612 8.784"/>
        <polygon points="55.873 38.852 34.671 43.599 35.64 38.727 50.832 35.815 50.849 35.736 37.929 27.227 38.899 22.357 56.668 34.859"/>
        <polygon points="38.87 5.488 25.681 32.959 21.089 32.045 34.278 4.574"/>
      </g>
    </g>
    <polygon fill="#EDEDED" points="12.412 292.07 33.615 287.323 32.645 292.195 17.453 295.107 17.437 295.187 30.356 303.695 29.386 308.566 11.617 296.063" mask="url(#imgcourse-b)"/>
    <polygon fill="#EDEDED" points="66.878 326.13 45.675 330.876 46.645 326.005 61.837 323.093 61.853 323.013 48.934 314.505 49.904 309.634 67.673 322.137" mask="url(#imgcourse-b)"/>
    <polygon fill="#EDEDED" points="49.875 292.766 36.686 320.237 32.094 319.323 45.283 291.852" mask="url(#imgcourse-b)"/>
    <path fill="#329669" d="M74.6684,18.9664 C87.7644,36.9874 83.7714,62.2124 65.7504,75.3084 C47.7294,88.4034 22.5044,84.4104 9.4084,66.3904 C-3.6866,48.3694 0.3064,23.1444 18.3264,10.0484 C36.3474,-3.0476 61.5724,0.9454 74.6684,18.9664" mask="url(#imgcourse-b)"/>
    <path fill="#3CAD7E" d="M72.9682,16.6265 C86.0642,34.6475 82.0712,59.8725 64.0502,72.9685 C46.0292,86.0645 20.8042,82.0715 7.7082,64.0505 C-5.3868,46.0295 -1.3948,20.8045 16.6262,7.7085 C34.6472,-5.3875 59.8722,-1.3945 72.9682,16.6265" mask="url(#imgcourse-b)"/>
    <g fill="#070707" mask="url(#imgcourse-b)">
      <g transform="translate(6 11.233)">
        <path d="M29.0093,10.8598 C17.1983,14.5838 10.6183,27.2228 14.3423,39.0338 C18.0663,50.8458 30.7053,57.4248 42.5163,53.7018 C54.3283,49.9778 60.9073,37.3388 57.1843,25.5268 C53.4603,13.7158 40.8213,7.1358 29.0093,10.8598 M42.7753,54.5218 C30.5113,58.3888 17.3883,51.5568 13.5213,39.2928 C9.6553,27.0288 16.4873,13.9058 28.7503,10.0398 C41.0153,6.1728 54.1373,13.0048 58.0043,25.2678 C61.8713,37.5318 55.0393,50.6548 42.7753,54.5218"/>
        <path d="M31.0825 9.8188C31.4545 10.9988 30.7995 12.2568 29.6195 12.6288 28.4395 13.0008 27.1825 12.3458 26.8105 11.1658 26.4375 9.9858 27.0935 8.7288 28.2725 8.3568 29.4525 7.9848 30.7105 8.6388 31.0825 9.8188M4.521 18.1933C4.893 19.3733 4.238 20.6313 3.059 21.0033 1.878 21.3753.621 20.7203.249 19.5403-.123 18.3603.532 17.1023 1.711 16.7303 2.891 16.3583 4.149 17.0133 4.521 18.1933M55.979 1.9697C56.351 3.1497 55.696 4.4077 54.516 4.7797 53.336 5.1517 52.079 4.4967 51.707 3.3167 51.334 2.1367 51.989.8787 53.169.5067 54.349.1357 55.607.7897 55.979 1.9697"/>
        <polygon points="54.408 2.853 1.998 19.377 1.74 18.556 54.149 2.033"/>
      </g>
    </g>
    <path fill="#EDEDED" d="M34.7095,21.1412 C22.8985,24.8652 16.3185,37.5042 20.0425,49.3152 C23.7665,61.1272 36.4055,67.7062 48.2165,63.9832 C60.0275,60.2592 66.6075,47.6202 62.8835,35.8082 C59.1605,23.9972 46.5215,17.4172 34.7095,21.1412 M48.4755,64.8032 C36.2115,68.6702 23.0885,61.8382 19.2215,49.5742 C15.3555,37.3102 22.1875,24.1872 34.4505,20.3212 C46.7145,16.4542 59.8375,23.2862 63.7045,35.5502 C67.5715,47.8142 60.7395,60.9372 48.4755,64.8032" mask="url(#imgcourse-b)"/>
    <path fill="#EDEDED" d="M36.7827 20.1006C37.1547 21.2806 36.4997 22.5386 35.3197 22.9106 34.1397 23.2826 32.8827 22.6276 32.5107 21.4476 32.1377 20.2676 32.7927 19.0096 33.9727 18.6376 35.1527 18.2656 36.4107 18.9206 36.7827 20.1006M10.2212 28.4747C10.5932 29.6547 9.9382 30.9127 8.7582 31.2847 7.5782 31.6567 6.3212 31.0017 5.9492 29.8217 5.5762 28.6417 6.2312 27.3847 7.4112 27.0127 8.5912 26.6407 9.8492 27.2947 10.2212 28.4747M61.6792 12.2515C62.0512 13.4315 61.3962 14.6895 60.2162 15.0615 59.0362 15.4335 57.7782 14.7775 57.4072 13.5985 57.0342 12.4185 57.6892 11.1605 58.8692 10.7885 60.0492 10.4165 61.3072 11.0715 61.6792 12.2515" mask="url(#imgcourse-b)"/>
    <polygon fill="#EDEDED" points="60.108 13.135 7.699 29.658 7.44 28.838 59.85 12.314" mask="url(#imgcourse-b)"/>
    <path fill="#638DCE" d="M309.5219,57.0987 C300.4059,75.9167 277.7609,83.7827 258.9419,74.6677 C240.1239,65.5517 232.2579,42.9067 241.3739,24.0877 C250.4889,5.2687 273.1349,-2.5963 291.9529,6.5187 C310.7719,15.6347 318.6369,38.2797 309.5219,57.0987" mask="url(#imgcourse-b)"/>
    <path fill="#749BE8" d="M308.5044,54.3882 C299.3884,73.2072 276.7434,81.0732 257.9244,71.9572 C239.1064,62.8412 231.2404,40.1962 240.3564,21.3772 C249.4724,2.5582 272.1174,-5.3068 290.9364,3.8082 C309.7544,12.9242 317.6204,35.5702 308.5044,54.3882" mask="url(#imgcourse-b)"/>
    <g fill="#070707" mask="url(#imgcourse-b)">
      <g transform="translate(244 8.233)">
        <path d="M34.3271,2.3642 C29.3331,1.7582 22.5971,12.5612 20.5291,29.6082 C18.4611,46.6552 22.4201,58.7552 27.4141,59.3602 C32.4081,59.9662 39.1441,49.1632 41.2121,32.1162 C43.2791,15.0702 39.3211,2.9692 34.3271,2.3642 M27.1731,61.3452 C20.2611,60.5082 16.4701,46.4602 18.5431,29.3672 C20.6171,12.2742 27.6561,-0.4598 34.5681,0.3792 C41.4801,1.2172 45.2701,15.2642 43.1971,32.3572 C41.1241,49.4512 34.0851,62.1842 27.1731,61.3452"/>
        <path d="M32.125,20.5205 C15.078,18.4535 2.978,22.4115 2.373,27.4055 C1.767,32.3995 12.569,39.1355 29.616,41.2035 C46.664,43.2705 58.763,39.3125 59.369,34.3185 C59.975,29.3245 49.172,22.5885 32.125,20.5205 M29.375,43.1885 C12.282,41.1155 -0.451,34.0775 0.387,27.1655 C1.226,20.2525 15.272,16.4615 32.366,18.5355 C49.459,20.6085 62.193,27.6475 61.354,34.5595 C60.516,41.4725 46.469,45.2625 29.375,43.1885"/>
        <path d="M36.4126,31.1997 C36.0436,34.2387 33.2826,36.4027 30.2436,36.0337 C27.2046,35.6657 25.0396,32.9037 25.4086,29.8647 C25.7776,26.8257 28.5396,24.6617 31.5786,25.0307 C34.6166,25.3987 36.7816,28.1607 36.4126,31.1997"/>
      </g>
    </g>
    <path fill="#FFF" d="M278.4975,8.273 C273.5035,7.667 266.7665,18.47 264.6995,35.517 C262.6315,52.564 266.5905,64.664 271.5845,65.269 C276.5785,65.875 283.3145,55.072 285.3825,38.025 C287.4495,20.979 283.4915,8.878 278.4975,8.273 M271.3435,67.255 C264.4315,66.417 260.6405,52.369 262.7135,35.276 C264.7875,18.183 271.8265,5.449 278.7385,6.288 C285.6505,7.126 289.4405,21.173 287.3675,38.266 C285.2945,55.36 278.2555,68.093 271.3435,67.255" mask="url(#imgcourse-b)"/>
    <path fill="#FFF" d="M276.2954,26.4293 C259.2484,24.3623 247.1484,28.3203 246.5434,33.3143 C245.9374,38.3083 256.7394,45.0443 273.7864,47.1123 C290.8334,49.1793 302.9334,45.2213 303.5394,40.2273 C304.1454,35.2333 293.3424,28.4973 276.2954,26.4293 M273.5454,49.0973 C256.4524,47.0243 243.7184,39.9863 244.5574,33.0743 C245.3954,26.1613 259.4424,22.3703 276.5364,24.4443 C293.6294,26.5173 306.3624,33.5563 305.5244,40.4683 C304.6864,47.3813 290.6394,51.1713 273.5454,49.0973" mask="url(#imgcourse-b)"/>
    <path fill="#FFF" d="M280.583,37.1085 C280.214,40.1475 277.452,42.3115 274.414,41.9425 C271.375,41.5745 269.21,38.8125 269.579,35.7735 C269.947,32.7345 272.709,30.5705 275.748,30.9395 C278.787,31.3075 280.952,34.0695 280.583,37.1085" mask="url(#imgcourse-b)"/>
    <path fill="#D89032" d="M464.9531,214.7388 C457.9701,230.3798 439.6291,237.3968 423.9881,230.4138 C408.3481,223.4298 401.3291,205.0908 408.3121,189.4488 C415.2961,173.8088 433.6371,166.7908 449.2771,173.7738 C464.9181,180.7578 471.9361,199.0978 464.9531,214.7388" mask="url(#imgcourse-b)"/>
    <path fill="#EFA73F" d="M465.8593,212.7076 C458.8763,228.3486 440.5363,235.3666 424.8953,228.3836 C409.2543,221.3996 402.2363,203.0596 409.2193,187.4186 C416.2033,171.7776 434.5433,164.7596 450.1843,171.7436 C465.8253,178.7266 472.8423,197.0666 465.8593,212.7076" mask="url(#imgcourse-b)"/>
    <path fill="#070707" d="M428.2968,217.4312 C428.1208,217.4062 427.9468,217.3602 427.7778,217.2942 C427.0598,217.0142 426.5228,216.4032 426.3388,215.6542 L421.4038,195.6252 C421.0908,194.3562 421.8658,193.0732 423.1368,192.7602 C424.4078,192.4472 425.6898,193.2232 426.0018,194.4932 L430.1318,211.2532 L459.0408,192.0562 C460.1298,191.3312 461.6008,191.6282 462.3228,192.7182 C463.0468,193.8072 462.7498,195.2772 461.6608,196.0012 L429.9478,217.0612 C429.4568,217.3862 428.8678,217.5142 428.2968,217.4312" mask="url(#imgcourse-b)"/>
    <path fill="#FFF" d="M428.5185,214.7711 C428.3425,214.7461 428.1685,214.7001 427.9995,214.6341 C427.2815,214.3541 426.7445,213.7431 426.5605,212.9941 L421.6255,192.9651 C421.3125,191.6951 422.0875,190.4121 423.3585,190.1001 C424.6295,189.7871 425.9115,190.5631 426.2235,191.8321 L430.3535,208.5931 L459.2625,189.3951 C460.3515,188.6711 461.8225,188.9681 462.5445,190.0581 C463.2685,191.1471 462.9715,192.6171 461.8825,193.3411 L430.1695,214.4001 C429.6785,214.7261 429.0895,214.8541 428.5185,214.7711" mask="url(#imgcourse-b)"/>
    <path fill="#91318A" d="M330.9785,355.8404 C324.1945,375.6194 302.6615,386.1544 282.8825,379.3714 C263.1035,372.5884 252.5675,351.0544 259.3515,331.2754 C266.1345,311.4954 287.6685,300.9604 307.4475,307.7444 C327.2275,314.5274 337.7615,336.0614 330.9785,355.8404" mask="url(#imgcourse-b)"/>
    <path fill="#AA3C9D" d="M331.8593,353.272 C325.0753,373.051 303.5423,383.587 283.7633,376.803 C263.9843,370.02 253.4483,348.487 260.2323,328.708 C267.0153,308.928 288.5483,298.393 308.3283,305.176 C328.1073,311.959 338.6423,333.494 331.8593,353.272" mask="url(#imgcourse-b)"/>
    <path fill="#EDEDED" d="M315.8515,359.8599 L278.2445,361.8349 C277.0325,361.8979 275.9975,360.9669 275.9345,359.7549 L273.9595,322.1479 C273.8955,320.9349 274.8275,319.9009 276.0395,319.8379 L313.6465,317.8629 C314.8585,317.7989 315.8935,318.7299 315.9565,319.9429 L317.9315,357.5499 C317.9955,358.7619 317.0635,359.7969 315.8515,359.8599" mask="url(#imgcourse-b)"/>
    <polygon fill="#91318A" points="288.675 325.15 278.643 350.587 301.315 349.396" mask="url(#imgcourse-b)"/>
    <polygon fill="#91318A" points="306.461 334.177 300.44 349.442 314.047 348.728" mask="url(#imgcourse-b)"/>
    <path fill="#070707" d="M315.5805,319.6041 L277.9735,321.5781 C276.7615,321.6421 275.8295,322.6761 275.8935,323.8881 L277.8675,361.4961 C277.9315,362.7081 278.9655,363.6391 280.1785,363.5761 L317.7855,361.6011 C318.9975,361.5381 319.9295,360.5031 319.8655,359.2911 L317.8915,321.6841 C317.8275,320.4711 316.7925,319.5401 315.5805,319.6041" mask="url(#imgcourse-b)"/>
  </g>
</svg>
