<svg xmlns="http://www.w3.org/2000/svg" xmlns:xlink="http://www.w3.org/1999/xlink" width="108" height="102" viewBox="0 0 108 102">
  <defs>
    <polygon id="logo-abc-a" points="0 100.051 107.694 100.051 107.694 .051 0 .051"/>
  </defs>
  <g fill="none" fill-rule="evenodd">
    <polygon fill="#FF7D9E" points="11.952 96.726 52.754 96.726 52.754 55.925 11.952 55.925"/>
    <path fill="#FF7D9E" d="M9.621,99.057 L55.085,99.057 L55.085,53.593 L9.621,53.593 L9.621,99.057 Z M7.289,101.388 L57.417,101.388 L57.417,51.261 L7.289,51.261 L7.289,101.388 Z"/>
    <path fill="#FFF" d="M11.952,96.726 L52.754,96.726 L52.754,55.925 L11.952,55.925 L11.952,96.726 Z M9.621,99.057 L55.085,99.057 L55.085,53.593 L9.621,53.593 L9.621,99.057 Z"/>
    <g transform="translate(0 .949)">
      <path fill="#FFF" d="M28.5176,77.1611 L36.1466,77.1611 L33.2816,69.3311 C33.1396,68.9521 32.9856,68.5141 32.8196,68.0151 C32.6516,67.5111 32.4856,66.9611 32.3236,66.3681 C32.1586,66.9661 31.9976,67.5171 31.8426,68.0231 C31.6876,68.5321 31.5336,68.9791 31.3816,69.3651 L28.5176,77.1611 Z M45.8676,85.4541 L45.8676,87.2331 L44.6296,87.2331 L41.9006,87.2331 L41.3176,87.2331 L41.0036,87.2331 L37.3506,87.2331 L37.3506,85.4541 C37.3506,85.0501 37.5806,84.7521 38.0426,84.5601 C38.1266,84.5251 38.3596,84.4291 38.7396,84.2681 L38.6046,83.9011 L37.3526,80.4731 L27.3126,80.4731 L26.0046,84.0481 L25.9236,84.2681 C26.3076,84.4301 26.5396,84.5271 26.6216,84.5601 C27.0816,84.7521 27.3126,85.0501 27.3126,85.4541 L27.3126,87.2331 L23.6766,87.2331 L23.3456,87.2331 L22.7636,87.2331 L20.0336,87.2331 L18.7956,87.2331 L18.7956,85.4541 C18.7956,85.0501 19.0276,84.7521 19.4886,84.5601 C19.6716,84.4841 20.3096,84.2171 21.3986,83.7571 L29.9346,62.0271 L34.7286,62.0271 L43.2636,83.7571 C44.3606,84.2201 44.9966,84.4871 45.1746,84.5601 C45.6356,84.7521 45.8676,85.0501 45.8676,85.4541 L45.8676,85.4541 Z"/>
      <mask id="logo-abc-b" fill="#fff">
        <use xlink:href="#logo-abc-a"/>
      </mask>
      <polygon fill="#ADECFF" points="62.23 95.777 103.031 95.777 103.031 54.976 62.23 54.976" mask="url(#logo-abc-b)"/>
      <path fill="#ADECFF" d="M59.898,98.108 L105.362,98.108 L105.362,52.644 L59.898,52.644 L59.898,98.108 Z M57.567,100.439 L107.694,100.439 L107.694,50.312 L57.567,50.312 L57.567,100.439 Z" mask="url(#logo-abc-b)"/>
      <path fill="#FFF" d="M62.23,95.777 L103.031,95.777 L103.031,54.976 L62.23,54.976 L62.23,95.777 Z M59.898,98.108 L105.362,98.108 L105.362,52.644 L59.898,52.644 L59.898,98.108 Z" mask="url(#logo-abc-b)"/>
      <path fill="#FFF" d="M90.0391,69.3428 C89.9831,69.0268 89.8821,68.1048 89.7341,66.5758 C87.8331,66.0188 86.2271,65.7398 84.9181,65.7398 C83.7341,65.7398 82.6441,65.9468 81.6501,66.3598 C80.6561,66.7728 79.8021,67.3618 79.0881,68.1288 C78.3731,68.8958 77.8141,69.8288 77.4141,70.9268 C77.0131,72.0258 76.8121,73.2598 76.8121,74.6308 C76.8121,76.0488 77.0131,77.3098 77.4141,78.4128 C77.8141,79.5178 78.3581,80.4468 79.0441,81.2018 C79.7291,81.9578 80.5361,82.5358 81.4671,82.9368 C82.3961,83.3378 83.3951,83.5388 84.4651,83.5378 C85.1041,83.5378 85.6821,83.5028 86.1991,83.4338 C86.7171,83.3638 87.1941,83.2528 87.6291,83.1028 C88.0631,82.9518 88.4771,82.7578 88.8661,82.5188 C89.2551,82.2808 89.6421,81.9878 90.0251,81.6378 C90.1431,81.5328 90.2651,81.4488 90.3931,81.3858 C90.5201,81.3218 90.6601,81.2898 90.8101,81.2898 C91.0651,81.2898 91.2861,81.3878 91.4731,81.5858 L93.3211,83.5908 C92.2981,84.8578 91.0401,85.8278 89.5471,86.5018 C88.0531,87.1758 86.2611,87.5128 84.1691,87.5128 C82.2981,87.5128 80.6161,87.1938 79.1231,86.5538 C77.6281,85.9138 76.3521,85.0258 75.2971,83.8868 C74.2381,82.7478 73.4291,81.3888 72.8651,79.8078 C72.3021,78.2288 72.0191,76.5028 72.0191,74.6308 C72.0191,72.7368 72.3331,71.0018 72.9611,69.4268 C73.5891,67.8528 74.4721,66.4958 75.6101,65.3578 C76.7491,64.2188 78.1111,63.3318 79.6981,62.6978 C81.2841,62.0658 83.0361,61.7488 84.9521,61.7488 C87.0511,61.7488 89.6851,62.3538 92.8581,63.5638 L92.8581,69.9918 L90.8511,69.9918 C90.4031,69.9918 90.1321,69.7758 90.0391,69.3428" mask="url(#logo-abc-b)"/>
      <polygon fill="#664D76" points="40.005 45.516 80.807 45.516 80.807 4.714 40.005 4.714" mask="url(#logo-abc-b)"/>
      <path fill="#664D76" d="M37.674,47.847 L83.138,47.847 L83.138,2.383 L37.674,2.383 L37.674,47.847 Z M35.343,50.179 L85.47,50.179 L85.47,0.051 L35.343,0.051 L35.343,50.179 Z" mask="url(#logo-abc-b)"/>
      <path fill="#FFF" d="M40.005,45.516 L80.807,45.516 L80.807,4.714 L40.005,4.714 L40.005,45.516 Z M37.674,47.847 L83.138,47.847 L83.138,2.383 L37.674,2.383 L37.674,47.847 Z" mask="url(#logo-abc-b)"/>
      <path fill="#FFF" d="M66.5469,29.459 C66.5469,28.912 66.4599,28.422 66.2849,27.985 C66.1109,27.551 65.8379,27.179 65.4669,26.87 C65.0939,26.563 64.6169,26.327 64.0369,26.164 C63.4549,26.001 62.7519,25.92 61.9279,25.92 L57.1859,25.92 L57.1859,33.312 L61.9449,33.312 C62.8169,33.312 63.5459,33.206 64.1329,32.998 C64.7199,32.788 65.1909,32.51 65.5449,32.161 C65.8989,31.812 66.1539,31.405 66.3119,30.94 C66.4689,30.476 66.5469,29.981 66.5469,29.459 L66.5469,29.459 Z M57.1859,22.679 L60.9349,22.679 C62.5259,22.679 63.7349,22.388 64.5599,21.807 C65.3849,21.226 65.7979,20.302 65.7979,19.035 C65.7979,17.722 65.4259,16.786 64.6819,16.229 C63.9389,15.67 62.7759,15.392 61.1949,15.392 L57.1859,15.392 L57.1859,22.679 Z M71.1839,29.563 C71.1839,30.633 70.9809,31.621 70.5729,32.526 C70.1659,33.433 69.5739,34.215 68.7949,34.871 C68.0169,35.528 67.0579,36.042 65.9189,36.414 C64.7799,36.786 63.4799,36.972 62.0149,36.972 L52.4969,36.972 L49.8559,36.972 L49.8559,34.923 C49.8559,34.32 50.1469,33.957 50.7279,33.832 C50.7789,33.823 50.8529,33.81 50.9469,33.793 C51.0409,33.775 51.2149,33.744 51.4659,33.699 C51.7179,33.654 52.0619,33.593 52.4969,33.516 L52.4969,15.221 C52.0619,15.145 51.7179,15.083 51.4659,15.038 C51.2149,14.993 51.0419,14.962 50.9469,14.944 C50.8519,14.928 50.7789,14.914 50.7279,14.905 C50.1469,14.78 49.8559,14.417 49.8559,13.814 L49.8559,11.766 L52.4969,11.766 L61.1949,11.766 C62.8449,11.766 64.2539,11.923 65.4219,12.236 C66.5909,12.55 67.5489,12.997 68.2989,13.578 C69.0489,14.159 69.5979,14.862 69.9449,15.688 C70.2939,16.513 70.4689,17.442 70.4689,18.477 C70.4689,19.069 70.3819,19.636 70.2079,20.176 C70.0329,20.717 69.7629,21.223 69.3969,21.693 C69.0299,22.164 68.5659,22.591 68.0019,22.975 C67.4389,23.357 66.7679,23.683 65.9889,23.951 C69.4519,24.73 71.1839,26.601 71.1839,29.563 L71.1839,29.563 Z" mask="url(#logo-abc-b)"/>
    </g>
  </g>
</svg>
