<svg xmlns="http://www.w3.org/2000/svg" width="23" height="22" viewBox="0 0 23 22">
  <path fill-rule="evenodd" d="M22.6175632,9.37181019 L16.6258433,13.7319783 L18.9148446,20.7864595 C19.0395714,21.1682821 18.9029867,21.5870553 18.5797509,21.8232751 C18.4172547,21.9407251 18.2257726,21.9996701 18.0347297,21.9996701 C17.8436868,21.9996701 17.6526439,21.9407251 17.4914652,21.8232751 L11.5001845,17.4631069 L5.50934292,21.8228352 C5.18391123,22.0590549 4.74517135,22.0590549 4.42017885,21.8228352 C4.09650388,21.5866154 3.96035837,21.1682821 4.08464605,20.7864595 L6.37320813,13.7310986 L0.381927391,9.37181019 C0.0573740657,9.13559042 -0.078771443,8.71769699 0.045516231,8.33543446 C0.169803905,7.95317194 0.525538944,7.6945179 0.925631068,7.6945179 L8.33150756,7.6945179 L10.6200696,0.640476678 C10.7439181,0.258214155 11.0987748,0 11.5010628,0 C11.9015941,0 12.2564508,0.258214155 12.3802993,0.640476678 L14.6684222,7.6945179 L22.0747379,7.6945179 C22.4752692,7.6945179 22.8305651,7.95317194 22.9557311,8.33543446 C23.0778229,8.71769699 22.9416774,9.13559042 22.6175632,9.37181019"/>
</svg>
